<svg xmlns="http://www.w3.org/2000/svg" width="620" height="148" viewBox="0 0 620 148" fill="none" font-family="JBMono,ui-monospace,SFMono-Regular,Menlo,Consolas,'Liberation Mono',monospace"><style>.d-f{fill:#6e7681;}.d-s{stroke:#6e7681;}.e-f{fill:#424a53;}.m-f{fill:#8c959f;}.u-s{stroke:#d8dee4;}.r{stroke:#ffffff;}.c0{fill:#eff2f5;}.c1{fill:#aceebb;}.c2{fill:#4ac26b;}.c3{fill:#2da44e;}.c4{fill:#116329;}.w{fill:#6e7681;opacity:.13}@media(prefers-color-scheme:dark){.d-f{fill:#c9d1d9;}.d-s{stroke:#c9d1d9;}.e-f{fill:#f0f6fc;}.m-f{fill:#8b949e;}.u-s{stroke:#30363d;}.r{stroke:#0d1117;}.c0{fill:#151b23;}.c1{fill:#033a16;}.c2{fill:#196c2e;}.c3{fill:#2ea043;}.c4{fill:#56d364;}.w{fill:#c9d1d9;opacity:.16}}</style><g opacity="0"><animate attributeName="opacity" from="0" to="1" begin="0.10s" dur="0.45s" fill="freeze"/><text x="0" y="50" class="e-f" font-size="52" font-weight="600">710</text><text x="0" y="72" class="m-f" font-size="12">contributions in the last year</text></g><g opacity="0"><animate attributeName="opacity" from="0" to="1" begin="0.30s" dur="0.45s" fill="freeze"/><text x="620" y="30" class="e-f" font-size="19" text-anchor="end" font-weight="600">99</text><text x="620" y="47" class="m-f" font-size="11" text-anchor="end">active days</text></g><g opacity="0"><animate attributeName="opacity" from="0" to="1" begin="0.42s" dur="0.45s" fill="freeze"/><text x="620" y="70" class="e-f" font-size="19" text-anchor="end" font-weight="600">96</text><text x="620" y="87" class="m-f" font-size="11" text-anchor="end">best week</text></g><clipPath id="rs"><rect x="0" y="84" height="56" width="0"><animate attributeName="width" from="0" to="620" begin="0.50s" dur="1.3s" fill="freeze"/></rect></clipPath><g clip-path="url(#rs)"><path d="M0.0 138.0L0.0 138.0L11.9 138.0L23.8 138.0L35.8 138.0L47.7 138.0L59.6 138.0L71.5 138.0L83.5 138.0L95.4 138.0L107.3 138.0L119.2 138.0L131.2 138.0L143.1 137.0L155.0 138.0L166.9 138.0L178.8 138.0L190.8 138.0L202.7 137.5L214.6 138.0L226.5 137.5L238.5 137.5L250.4 138.0L262.3 137.5L274.2 138.0L286.2 138.0L298.1 138.0L310.0 137.5L321.9 137.0L333.8 128.0L345.8 109.0L357.7 117.0L369.6 130.0L381.5 136.0L393.5 105.0L405.4 131.5L417.3 90.0L429.2 133.5L441.2 132.0L453.1 113.5L465.0 133.0L476.9 90.0L488.8 129.0L500.8 125.5L512.7 123.0L524.6 133.5L536.5 137.5L548.5 130.0L560.4 114.5L572.3 128.0L584.2 137.5L596.2 135.5L608.1 119.0L620.0 138.0L620.0 138.0Z" class="w"/><path d="M0.0 138.0L11.9 138.0L23.8 138.0L35.8 138.0L47.7 138.0L59.6 138.0L71.5 138.0L83.5 138.0L95.4 138.0L107.3 138.0L119.2 138.0L131.2 138.0L143.1 137.0L155.0 138.0L166.9 138.0L178.8 138.0L190.8 138.0L202.7 137.5L214.6 138.0L226.5 137.5L238.5 137.5L250.4 138.0L262.3 137.5L274.2 138.0L286.2 138.0L298.1 138.0L310.0 137.5L321.9 137.0L333.8 128.0L345.8 109.0L357.7 117.0L369.6 130.0L381.5 136.0L393.5 105.0L405.4 131.5L417.3 90.0L429.2 133.5L441.2 132.0L453.1 113.5L465.0 133.0L476.9 90.0L488.8 129.0L500.8 125.5L512.7 123.0L524.6 133.5L536.5 137.5L548.5 130.0L560.4 114.5L572.3 128.0L584.2 137.5L596.2 135.5L608.1 119.0L620.0 138.0" class="d-s" stroke-width="2" stroke-linejoin="round" stroke-linecap="round"/></g><rect y="84" width="2" height="56" class="d-f" opacity="0"><animate attributeName="x" from="0" to="620" begin="0.50s" dur="1.3s" fill="freeze"/><set attributeName="opacity" to="0.55" begin="0.50s"/><set attributeName="opacity" to="0" begin="1.80s"/></rect><circle cx="618.0" cy="138.0" r="4.5" class="e-f r" stroke-width="2" opacity="0"><animate attributeName="opacity" from="0" to="1" begin="1.80s" dur="0.35s" fill="freeze"/></circle></svg>